<svg xmlns="http://www.w3.org/2000/svg" xml:space="preserve" width="128" height="128" data-id="lg_by2Ld5cN1irw981iSv" data-version="1" viewBox="0 0 128 128"><g data-padding="20"><g transform="translate(54.05 54.043)scale(.17767)"><rect width="799.147" height="795.992" x="-719.568" y="-716.352" rx="0" ry="0" transform="matrix(.7 0 0 .7 280 278.89)"/><path fill="#d5e1ff" d="M181.973 281.38h42.664L148.78 168.857q21.83-3.472 36.17-20.07a57.73 57.73 0 0 0 14.432-39.236v-219.862q0-24.4-17.408-41.898a58.63 58.63 0 0 0-42.755-17.41H-27.426q-25.347 0-42.755 17.41a57.28 57.28 0 0 0-17.454 41.897V109.55q0 22.64 14.883 39.688a55.47 55.47 0 0 0 35.72 19.618l-75.86 112.524h42.71l7.26-10.824h237.588Zm-25.392-149.19a27.06 27.06 0 0 1-20.024 7.893 26.16 26.16 0 0 1-19.167-7.893 27.06 27.06 0 0 1-7.893-20.07q0-11.274 7.893-19.573a25.26 25.26 0 0 1 19.167-8.343q12.222 0 20.024 8.298a27.06 27.06 0 0 1 7.893 19.619q0 12.177-7.893 20.07M-51.014-104.766q0-12.222 7.893-20.115a27.06 27.06 0 0 1 20.024-7.847h157.895q12.222 0 20.52 7.847a27.06 27.06 0 0 1 8.344 20.115v70.356q0 12.177-8.343 20.07a28.4 28.4 0 0 1-20.52 7.802H-23.097q-12.267 0-20.024-7.803a27.06 27.06 0 0 1-7.893-20.114Zm6.134 236.955a27.06 27.06 0 0 1-7.893-20.07q0-11.274 7.893-19.573a27.06 27.06 0 0 1 20.07-8.343q11.274 0 19.212 8.298A27.06 27.06 0 0 1 2.25 112.12q0 12.267-7.847 20.07a26.16 26.16 0 0 1-19.213 7.892 27.06 27.06 0 0 1-20.07-7.893m6.405 102.016 19.8-29.585H130.47l19.844 29.585Z"/></g><path fill="transparent" stroke="transparent" stroke-width=".184" d="M12.5 12.684h103v102.632h-103z"/></g></svg>