<svg xmlns="http://www.w3.org/2000/svg" xml:space="preserve" width="128" height="128" data-id="lg_by2Ld5cN1irw981iSv" data-version="1" viewBox="0 0 128 128"><g data-padding="20"><g transform="translate(54.103 52.681)scale(.17675)"><rect width="525.832" height="155.813" x="-689.056" y="-493.096" rx="0" ry="0" transform="matrix(.81 0 0 .81 469.37 400.34)"/><rect width="151.358" height="155.813" x="-501.819" y="-493.096" rx="0" ry="0" transform="matrix(.81 0 0 .81 181.3 400.34)"/><g transform="translate(468.62 400.26)"><filter id="a" width="140%" height="140%" x="-20%" y="-20%"><feGaussianBlur in="SourceAlpha"/><feOffset result="oBlur"/><feFlood flood-color="#f75cff" flood-opacity="1"/><feComposite in2="oBlur" operator="in"/><feMerge><feMergeNode/><feMergeNode in="SourceGraphic"/></feMerge></filter><g filter="url(#a)"><rect width="358.794" height="91.53" x="-524.57" y="-382.068" fill="none" rx="0" ry="0" transform="translate(-.65)"/><path fill="#fff" d="M-503.363-311.363h-14.18v-50.62h14.18q4.84 0 7.68 1.91t4.07 4.64q1.24 2.73 1.24 5.15 0 2.75-1.26 5.03-1.27 2.28-3.41 3.74 4.11 1.86 6.67 5.57t2.56 8.44q0 3.99-2 7.7-2 3.72-5.9 6.08-3.91 2.36-9.65 2.36m-7.76-27v21.26h7.31q4.16 0 6.69-1.63t3.71-4.1q1.19-2.48 1.19-4.9 0-2.36-1.13-4.84-1.12-2.47-3.66-4.13-2.53-1.66-6.8-1.66Zm0-17.89v12.49h7.25q3.32 0 5.37-1.6 2.06-1.61 2.06-4.59 0-3.09-2.03-4.69-2.02-1.61-5.17-1.61Zm51.17 45.57q-4.78 0-8.49-2.11t-5.82-5.85-2.11-8.64v-34.7h6.41v34.48q0 5 2.87 8.04t7.26 3.04q4.33 0 7.22-3.01 2.9-3.01 2.9-7.85v-34.7h6.19v34.48q0 4.95-2.11 8.74-2.11 3.8-5.79 5.94-3.69 2.14-8.53 2.14m53.56-.68h-23.96v-50.62h6.41v44.88h17.55Zm18.9-44.89h-13.5v-5.73h33.42v5.73h-13.5v44.89h-6.42Zm36.28 44.89h-6.41v-50.62h12.71q4.79 0 8.22 1.91t5.31 5.03q1.89 3.12 1.89 6.84 0 4.16-2.37 7.48-2.36 3.32-6.46 4.89l16.98 24.47h-7.48l-16.09-23.29h-6.3Zm0-44.89v16.2h6.3q3.27 0 5.32-1.21t3.04-3.09q.98-1.88.98-3.85 0-3.55-2.56-5.8t-6.78-2.25Zm37.69 44.9h-6.47l21.43-52.31h.12l21.43 52.31h-6.81l-5.96-15.02h-17.72Zm12.15-30.37-3.99 10.01h13.44l-3.99-10.01q-.73-1.92-1.41-3.77-.67-1.86-1.35-4.45-.67 2.59-1.29 4.42t-1.41 3.8m39.55 30.36h-6.42v-50.62h6.42Zm56.36-50.62v52.31l-35.44-37.97v36.28h-6.07v-52.31l35.43 37.97v-36.28Zm25.08 51.31q-4.5 0-8.13-1.8t-5.77-4.39l1.86-7.76q1.57 3.15 4.72 5.68t7.54 2.53q3.99 0 6.61-2.53t2.62-6.25q0-2.7-1.3-4.44-1.29-1.74-2.92-2.76-1.63-1.01-2.59-1.46l-6.19-3.15q-1.46-.79-3.63-2.19-2.16-1.41-3.79-3.88-1.63-2.48-1.63-6.42 0-3.82 1.77-6.8t4.95-4.67 7.28-1.69q4.05 0 7.15 1.43 3.09 1.44 4.83 2.96l-1.85 7.76q-1.41-2.36-4.17-4.44-2.75-2.08-6.24-2.08-3.37 0-5.4 1.99-2.02 2-2.02 4.92 0 2.25 1.04 3.72 1.04 1.46 2.36 2.3 1.32.85 2.16 1.3l6.3 3.15q1.13.56 2.85 1.57 1.71 1.01 3.4 2.67t2.81 4.05q1.13 2.39 1.13 5.77 0 4.33-2.06 7.71-2.05 3.37-5.59 5.28-3.55 1.92-8.1 1.92"/></g></g><path fill="#d5e1ff" d="M-144.683 100.137h6.906l-12.278-18.214q3.533-.562 5.854-3.248a9.34 9.34 0 0 0 2.336-6.35v-35.59q0-3.949-2.818-6.78a9.5 9.5 0 0 0-6.92-2.819h-26.973q-4.103 0-6.92 2.818a9.27 9.27 0 0 0-2.826 6.781v35.588q0 3.665 2.409 6.424a8.98 8.98 0 0 0 5.782 3.175l-12.28 18.214h6.914l1.175-1.752h38.457Zm-4.11-24.148a4.38 4.38 0 0 1-3.24 1.277 4.23 4.23 0 0 1-3.103-1.277 4.38 4.38 0 0 1-1.278-3.249q0-1.825 1.278-3.168a4.1 4.1 0 0 1 3.102-1.35q1.979 0 3.24 1.343a4.38 4.38 0 0 1 1.279 3.175q0 1.971-1.277 3.25m-33.602-38.356q0-1.978 1.277-3.255a4.38 4.38 0 0 1 3.24-1.27h25.559q1.978 0 3.32 1.27a4.38 4.38 0 0 1 1.35 3.255v11.388q0 1.971-1.35 3.25a4.6 4.6 0 0 1-3.32 1.262h-25.558q-1.985 0-3.24-1.263a4.38 4.38 0 0 1-1.278-3.256Zm.992 38.355a4.38 4.38 0 0 1-1.277-3.249q0-1.825 1.277-3.168a4.38 4.38 0 0 1 3.249-1.35q1.825 0 3.11 1.343a4.38 4.38 0 0 1 1.27 3.175q0 1.986-1.27 3.25a4.23 4.23 0 0 1-3.11 1.276 4.38 4.38 0 0 1-3.25-1.277m1.038 16.512 3.205-4.789h24.14l3.213 4.79Z"/></g><path fill="transparent" stroke="transparent" stroke-width=".183" d="M12.5 52.454h103v23.092h-103z"/></g></svg>